<svg width="51" height="51" viewBox="0 0 51 51" fill="none" xmlns="http://www.w3.org/2000/svg">
<circle cx="25.5" cy="25.5" r="25" fill="url(#paint0_linear_1_692)" stroke="white"/>
<path d="M20.78 32V30.98L26.6 25.28C27.1333 24.76 27.5333 24.3067 27.8 23.92C28.0667 23.52 28.2467 23.1467 28.34 22.8C28.4333 22.4533 28.48 22.1267 28.48 21.82C28.48 21.0067 28.2 20.3667 27.64 19.9C27.0933 19.4333 26.28 19.2 25.2 19.2C24.3733 19.2 23.64 19.3267 23 19.58C22.3733 19.8333 21.8333 20.2267 21.38 20.76L20.36 19.88C20.9067 19.24 21.6067 18.7467 22.46 18.4C23.3133 18.0533 24.2667 17.88 25.32 17.88C26.2667 17.88 27.0867 18.0333 27.78 18.34C28.4733 18.6333 29.0067 19.0667 29.38 19.64C29.7667 20.2133 29.96 20.8867 29.96 21.66C29.96 22.1133 29.8933 22.56 29.76 23C29.64 23.44 29.4133 23.9067 29.08 24.4C28.76 24.88 28.2867 25.4267 27.66 26.04L22.32 31.28L21.92 30.72H30.6V32H20.78Z" fill="#2F2F2F"/>
<defs>
<linearGradient id="paint0_linear_1_692" x1="11" y1="7" x2="44.5" y2="47" gradientUnits="userSpaceOnUse">
<stop stop-color="#F5F5FC"/>
<stop offset="1" stop-color="white" stop-opacity="0.51"/>
</linearGradient>
</defs>
</svg>
