<svg width="51" height="51" viewBox="0 0 51 51" fill="none" xmlns="http://www.w3.org/2000/svg">
<circle cx="25.5" cy="25.5" r="25" fill="url(#paint0_linear_1_699)" stroke="white"/>
<path d="M25.22 32.12C24.2067 32.12 23.2467 31.96 22.34 31.64C21.4467 31.3067 20.7267 30.8667 20.18 30.32L20.88 29.18C21.3333 29.6467 21.94 30.0333 22.7 30.34C23.4733 30.6467 24.3133 30.8 25.22 30.8C26.38 30.8 27.2667 30.5467 27.88 30.04C28.5067 29.5333 28.82 28.8533 28.82 28C28.82 27.1467 28.5133 26.4667 27.9 25.96C27.3 25.4533 26.3467 25.2 25.04 25.2H24.04V24.14L28.36 18.72L28.56 19.28H20.76V18H29.76V19.02L25.44 24.44L24.74 23.98H25.28C26.96 23.98 28.2133 24.3533 29.04 25.1C29.88 25.8467 30.3 26.8067 30.3 27.98C30.3 28.7667 30.1133 29.4733 29.74 30.1C29.3667 30.7267 28.8 31.22 28.04 31.58C27.2933 31.94 26.3533 32.12 25.22 32.12Z" fill="#2F2F2F"/>
<defs>
<linearGradient id="paint0_linear_1_699" x1="11" y1="7" x2="44.5" y2="47" gradientUnits="userSpaceOnUse">
<stop stop-color="#F5F5FC"/>
<stop offset="1" stop-color="white" stop-opacity="0.51"/>
</linearGradient>
</defs>
</svg>
