<svg width="19" height="20" viewBox="0 0 19 20" fill="none" xmlns="http://www.w3.org/2000/svg">
<path d="M4.05502 18.751H17.2493C17.5254 18.751 17.7495 18.5179 17.7495 18.2302L17.7493 12.3842M5.45323 18.4276L17.4113 12.6182C17.6616 12.4966 17.7698 12.1866 17.6531 11.9259L15.2817 6.62814C15.165 6.36741 14.8674 6.25419 14.6172 6.37578L9.278 8.96983M7.24893 16.1975C6.77643 18.0346 4.9639 19.1248 3.20052 18.6326C1.43714 18.1403 0.390453 16.2522 0.86295 14.415L4.27787 1.13725C4.34934 0.859361 4.62327 0.694392 4.89 0.768851L10.3101 2.28163C10.5768 2.35609 10.7351 2.64164 10.6636 2.91953L7.24893 16.1975ZM4.05503 15.4057H4.05691L4.05687 15.4077L4.05503 15.4076V15.4057Z" stroke="#B45353" stroke-width="1.5" stroke-linecap="round" stroke-linejoin="round"/>
</svg>
