<svg width="42" height="42" viewBox="0 0 42 42" fill="none" xmlns="http://www.w3.org/2000/svg">
<circle cx="21" cy="21" r="20.5" stroke="#2B2929" stroke-opacity="0.56"/>
<path d="M14.2929 26.2929C13.9024 26.6834 13.9024 27.3166 14.2929 27.7071C14.6834 28.0976 15.3166 28.0976 15.7071 27.7071L15 27L14.2929 26.2929ZM27.3137 15.6863C27.3137 15.134 26.866 14.6863 26.3137 14.6863L17.3137 14.6863C16.7614 14.6863 16.3137 15.134 16.3137 15.6863C16.3137 16.2386 16.7614 16.6863 17.3137 16.6863L25.3137 16.6863L25.3137 24.6863C25.3137 25.2386 25.7614 25.6863 26.3137 25.6863C26.866 25.6863 27.3137 25.2386 27.3137 24.6863L27.3137 15.6863ZM15 27L15.7071 27.7071L27.0208 16.3934L26.3137 15.6863L25.6066 14.9792L14.2929 26.2929L15 27Z" fill="#501313"/>
</svg>
