<svg width="6" height="8" viewBox="0 0 6 8" fill="none" xmlns="http://www.w3.org/2000/svg">
<path d="M2.54559 7.40002C2.54559 7.62094 2.72467 7.80002 2.94559 7.80002C3.1665 7.80002 3.34559 7.62094 3.34559 7.40002H2.94559H2.54559ZM3.22843 0.117182C3.07222 -0.0390282 2.81895 -0.0390282 2.66274 0.117182L0.11716 2.66277C-0.0390496 2.81898 -0.0390496 3.07224 0.11716 3.22845C0.27337 3.38466 0.526636 3.38466 0.682845 3.22845L2.94559 0.96571L5.20833 3.22845C5.36454 3.38466 5.6178 3.38466 5.77401 3.22845C5.93022 3.07224 5.93022 2.81898 5.77401 2.66277L3.22843 0.117182ZM2.94559 7.40002H3.34559L3.34559 0.400024H2.94559H2.54559L2.54559 7.40002H2.94559Z" fill="#66ACEE"/>
</svg>
