<svg width="6" height="8" viewBox="0 0 6 8" fill="none" xmlns="http://www.w3.org/2000/svg">
<path d="M2.54531 7.3999C2.54531 7.62082 2.7244 7.7999 2.94531 7.7999C3.16623 7.7999 3.34531 7.62082 3.34531 7.3999H2.94531H2.54531ZM3.22816 0.11706C3.07195 -0.0391502 2.81868 -0.0391502 2.66247 0.11706L0.116885 2.66264C-0.0393243 2.81885 -0.0393243 3.07212 0.116885 3.22833C0.273095 3.38454 0.526361 3.38454 0.682571 3.22833L2.94531 0.965588L5.20805 3.22833C5.36426 3.38454 5.61753 3.38454 5.77374 3.22833C5.92995 3.07212 5.92995 2.81885 5.77374 2.66264L3.22816 0.11706ZM2.94531 7.3999H3.34531L3.34531 0.399902H2.94531H2.54531L2.54531 7.3999H2.94531Z" fill="#66ACEE"/>
</svg>
