<svg width="10" height="10" viewBox="0 0 10 10" fill="none" xmlns="http://www.w3.org/2000/svg">
<path d="M1.3521 9.16504L7.5661 0.0650384H8.3331L2.1191 9.16504H1.3521ZM2.0541 4.94004C1.64677 4.94004 1.2871 4.84037 0.975102 4.64104C0.663102 4.43304 0.420435 4.14271 0.247102 3.77004C0.0824349 3.39737 0.000101604 2.96404 0.000101604 2.47004C0.000101604 1.97604 0.0824349 1.54271 0.247102 1.17004C0.420435 0.797372 0.663102 0.511372 0.975102 0.312038C1.2871 0.104038 1.64677 3.85046e-05 2.0541 3.85046e-05C2.46143 3.85046e-05 2.81677 0.104038 3.1201 0.312038C3.4321 0.511372 3.67477 0.797372 3.8481 1.17004C4.02144 1.54271 4.1081 1.97604 4.1081 2.47004C4.1081 2.96404 4.02144 3.39737 3.8481 3.77004C3.67477 4.14271 3.4321 4.43304 3.1201 4.64104C2.81677 4.84037 2.46143 4.94004 2.0541 4.94004ZM2.0541 4.35504C2.47877 4.35504 2.81677 4.19037 3.0681 3.86104C3.3281 3.52304 3.4581 3.05937 3.4581 2.47004C3.4581 1.88071 3.3281 1.42137 3.0681 1.09204C2.81677 0.754039 2.47877 0.585039 2.0541 0.585039C1.62077 0.585039 1.27843 0.754039 1.0271 1.09204C0.775768 1.42137 0.650102 1.88071 0.650102 2.47004C0.650102 3.05937 0.775768 3.52304 1.0271 3.86104C1.27843 4.19037 1.62077 4.35504 2.0541 4.35504ZM7.6311 9.23004C7.23243 9.23004 6.8771 9.13037 6.5651 8.93104C6.2531 8.72304 6.01044 8.43271 5.8371 8.06004C5.66377 7.68737 5.5771 7.25404 5.5771 6.76004C5.5771 6.26604 5.66377 5.83271 5.8371 5.46004C6.01044 5.08737 6.2531 4.80137 6.5651 4.60204C6.8771 4.39404 7.23243 4.29004 7.6311 4.29004C8.0471 4.29004 8.40677 4.39404 8.7101 4.60204C9.0221 4.80137 9.26044 5.08737 9.4251 5.46004C9.59844 5.83271 9.6851 6.26604 9.6851 6.76004C9.6851 7.25404 9.59844 7.68737 9.4251 8.06004C9.26044 8.43271 9.0221 8.72304 8.7101 8.93104C8.40677 9.13037 8.0471 9.23004 7.6311 9.23004ZM7.6311 8.64504C8.05577 8.64504 8.39377 8.48037 8.6451 8.15104C8.9051 7.81304 9.0351 7.34937 9.0351 6.76004C9.0351 6.17071 8.9051 5.71137 8.6451 5.38204C8.39377 5.04404 8.05577 4.87504 7.6311 4.87504C7.20644 4.87504 6.8641 5.04404 6.6041 5.38204C6.35277 5.71137 6.2271 6.17071 6.2271 6.76004C6.2271 7.34937 6.35277 7.81304 6.6041 8.15104C6.8641 8.48037 7.20644 8.64504 7.6311 8.64504Z" fill="#2F2F2F"/>
</svg>
